<svg width="33" height="40" viewBox="0 0 33 40" fill="none" xmlns="http://www.w3.org/2000/svg">
<g filter="url(#filter0_d_1_459000)">
<path d="M8.10832 18.3289C7.68958 18.5849 7.19732 18.7324 6.67059 18.7324C5.14593 18.7324 3.91002 17.4964 3.91002 15.9719L3.91002 11.7465C3.91002 11.5339 3.93456 11.3216 3.98339 11.1142L8.10832 18.3289ZM8.10832 18.3289C8.57329 19.1977 9.48953 19.7888 10.5438 19.7888C11.136 19.7888 11.6846 19.6023 12.1341 19.285C12.631 20.0142 13.4681 20.493 14.4171 20.493C14.813 20.493 15.1894 20.4097 15.5298 20.2596V24.7747C15.5298 26.2993 16.7657 27.5353 18.2904 27.5353C19.815 27.5353 21.0509 26.2993 21.0509 24.7747V15.5863C21.9996 16.4167 23.4288 16.5125 24.4914 15.7396L24.4915 15.7396C25.7244 14.8429 25.997 13.1164 25.1003 11.8834L24.2928 12.4706L25.1003 11.8834L19.4666 4.13685L19.4666 4.1368C19.2105 3.78468 18.8747 3.49813 18.4867 3.30056C18.0987 3.10299 17.6695 2.99998 17.2341 2.99997H17.234L8.07905 2.99997C6.79804 2.99997 5.68525 3.88124 5.39185 5.12824C5.39185 5.12825 5.39184 5.12825 5.39184 5.12826L3.98342 11.1141L8.10832 18.3289Z" fill="#FF00FF" stroke="white" stroke-width="2"/>
<path d="M16.7008 34.6968L16.7008 34.6974C16.7013 35.7583 17.5611 36.6177 18.6216 36.6185L18.6225 36.6185C19.6838 36.6184 20.5439 35.7582 20.5441 34.697L20.5441 34.6969L20.5441 31.8011L20.5441 31.8009C20.5439 31.271 20.3279 30.7891 19.9812 30.4423C19.6343 30.0954 19.1526 29.8799 18.6233 29.8795L18.6223 29.8795C17.5613 29.8797 16.701 30.7399 16.7009 31.801L16.7009 31.8011L16.7008 34.6968Z" fill="#FF00FF" stroke="white" stroke-width="2"/>
<path d="M24.6259 28.0933L24.6258 28.0932C23.8755 27.3432 22.6589 27.3428 21.9084 28.0933C21.1579 28.8438 21.1584 30.0605 21.9086 30.8107L23.9562 32.8583C24.7062 33.6083 25.9229 33.6091 26.6736 32.8584C27.424 32.1081 27.4239 30.8913 26.6735 30.1409L24.6259 28.0933Z" fill="#FF00FF" stroke="white" stroke-width="2"/>
<path d="M24.8912 28.0532L24.891 28.0532C23.8302 28.0529 22.9698 27.1931 22.9698 26.1319L24.8912 28.0532ZM24.8912 28.0532L27.7869 28.0532M24.8912 28.0532L27.7869 28.0532M27.7869 28.0532C27.7869 28.0532 27.787 28.0532 27.7871 28.0532M27.7869 28.0532L27.7871 28.0532M27.7871 28.0532C27.7871 28.0532 27.7872 28.0532 27.7873 28.0532M27.7871 28.0532H27.7873M27.7873 28.0532C28.8487 28.0534 29.7088 27.1928 29.7087 26.1317L27.7873 28.0532ZM29.7087 26.1316C29.7087 25.6015 29.4928 25.1199 29.1459 24.773C28.7992 24.4263 28.3174 24.2103 27.7873 24.2103L24.8914 24.2102C23.8302 24.2101 22.9698 25.0704 22.9698 26.1316L29.7087 26.1316Z" fill="#FF00FF" stroke="white" stroke-width="2"/>
<path d="M15.1903 28.5863C14.44 27.8359 13.2232 27.836 12.4728 28.5864L10.425 30.6342C9.67478 31.3844 9.67462 32.6012 10.425 33.3516C11.1755 34.1021 12.3921 34.1018 13.1424 33.3515L15.1903 31.3037C15.9404 30.5535 15.941 29.3369 15.1903 28.5863Z" fill="#FF00FF" stroke="white" stroke-width="2"/>
<path d="M11.4523 24.2103C11.9831 24.2102 12.4646 24.4268 12.811 24.7732C13.1572 25.1194 13.3738 25.6009 13.3738 26.1317L11.4523 24.2103ZM11.4523 24.2103C11.4522 24.2103 11.4521 24.2103 11.452 24.2103L8.55671 24.2103M11.4523 24.2103L8.55671 24.2103M8.55671 24.2103C8.55666 24.2103 8.55661 24.2103 8.55656 24.2103M8.55671 24.2103H8.55656M8.55656 24.2103C7.4954 24.2103 6.635 25.0704 6.63506 26.1317L8.55656 24.2103ZM11.4523 28.0533C11.4522 28.0533 11.4522 28.0533 11.4522 28.0533L8.5569 28.0533C8.55677 28.0533 8.55664 28.0533 8.55651 28.0533C7.49531 28.0535 6.63513 27.193 6.63506 26.1321L11.4523 28.0533ZM11.4523 28.0533C12.5134 28.0534 13.3737 27.1931 13.3738 26.1321L11.4523 28.0533Z" fill="#FF00FF" stroke="white" stroke-width="2"/>
</g>
<defs>
<filter id="filter0_d_1_459000" x="0.910156" y="0" width="31.7983" height="39.6185" filterUnits="userSpaceOnUse" color-interpolation-filters="sRGB">
<feFlood flood-opacity="0" result="BackgroundImageFix"/>
<feColorMatrix in="SourceAlpha" type="matrix" values="0 0 0 0 0 0 0 0 0 0 0 0 0 0 0 0 0 0 127 0" result="hardAlpha"/>
<feOffset/>
<feGaussianBlur stdDeviation="1"/>
<feComposite in2="hardAlpha" operator="out"/>
<feColorMatrix type="matrix" values="0 0 0 0 0 0 0 0 0 0 0 0 0 0 0 0 0 0 0.3 0"/>
<feBlend mode="normal" in2="BackgroundImageFix" result="effect1_dropShadow_1_459000"/>
<feBlend mode="normal" in="SourceGraphic" in2="effect1_dropShadow_1_459000" result="shape"/>
</filter>
</defs>
</svg>
