<svg width="18" height="19" viewBox="0 0 18 19" fill="none" xmlns="http://www.w3.org/2000/svg">
<path fill-rule="evenodd" clip-rule="evenodd" d="M13.137 2.42705L16.0463 5.3363C16.3399 5.62989 16.5 6.00356 16.5 6.40391V15.5053C16.5 16.3327 15.8327 17 15.0053 17H2.99466C2.16726 17 1.5 16.3327 1.5 15.5053V3.49466C1.5 2.66726 2.16726 2 2.99466 2H12.0694C12.4698 2 12.8434 2.13345 13.137 2.42705ZM10.1477 5.81656V2.98737H4.83631V5.81656C4.83631 5.89663 4.91638 5.9767 4.99645 5.9767H9.98756C10.0676 5.9767 10.1477 5.89663 10.1477 5.81656ZM4.80963 15.9855V11.3147C4.80963 11.2346 4.8897 11.1546 4.96977 11.1546H12.9769C13.057 11.1546 13.137 11.2346 13.137 11.3147V15.9855H4.80963ZM14.9786 16.0125C15.2722 16.0125 15.4857 15.7723 15.4857 15.5054H15.459V6.37724C15.4857 6.24379 15.4323 6.13702 15.3256 6.03026L12.4163 3.12101C12.3363 3.04094 12.2028 2.98756 12.0694 2.98756H11.1619V5.79005C11.1619 6.43062 10.6281 6.96443 9.9875 6.96443H4.9964C4.35583 6.96443 3.82202 6.43062 3.82202 5.79005V2.96087H2.99462C2.70103 2.96087 2.48751 3.20108 2.48751 3.46799V15.4787C2.48751 15.7723 2.72772 15.9858 2.99462 15.9858H3.79533V11.315C3.79533 10.6744 4.32914 10.1406 4.96971 10.1406H12.9768C13.6174 10.1406 14.1512 10.6744 14.1512 11.315V16.0125H14.9786Z" fill="black"/>
<path d="M6.49104 14.0374H11.4821C11.669 14.0374 11.8024 13.8773 11.8024 13.7171C11.8024 13.5303 11.6423 13.3968 11.4821 13.3968H6.49104C6.30421 13.3968 6.17076 13.557 6.17076 13.7171C6.14407 13.8773 6.30421 14.0374 6.49104 14.0374Z" fill="black"/>
<path d="M4.67618 2.85379H7.58544V6.19009H4.67618V2.85379Z" fill="black"/>
</svg>
