<svg width="18" height="19" viewBox="0 0 18 19" fill="none" xmlns="http://www.w3.org/2000/svg">
<path fill-rule="evenodd" clip-rule="evenodd" d="M14.25 18.5C16.3211 18.5 18 16.8211 18 14.75C18 12.6789 16.3211 11 14.25 11C12.1789 11 10.5 12.6789 10.5 14.75C10.5 16.8211 12.1789 18.5 14.25 18.5ZM14.2817 15.2254L12.507 17L12 16.493L13.7746 14.7817L12 13.007L12.507 12.5L14.2817 14.2746L15.993 12.5L16.5 13.007L14.7254 14.7817L16.5 16.493L15.993 17L14.2817 15.2254Z" fill="black"/>
<path d="M10.9 18.5C10.5 18.2 10.1 17.8 9.8 17.4H7.8L7.8 11.5L2 1.6L16 1.6L10.2 11.3C10.8 10.6 11.6 10 12.4 9.7L18 0.5L0 0.5L6.8 11.7L6.8 18.5H10.9Z" fill="black"/>
</svg>
