<svg width="12" height="12" viewBox="0 0 12 12" fill="none" xmlns="http://www.w3.org/2000/svg">
<path fill-rule="evenodd" clip-rule="evenodd" d="M8.14103 7.32634L11.9305 11.1158L11.4379 11.6337L7.6484 7.84424C6.12243 9.14226 3.89919 9.20472 2.30275 7.99442C0.706321 6.78412 0.166105 4.6266 1.00384 2.80681C1.84158 0.98702 3.83193 -0.00555557 5.78952 0.420228C7.7471 0.846012 9.14537 2.57563 9.15156 4.57897C9.15396 5.58612 8.79546 6.56079 8.14103 7.32634ZM1.609 5.93202C2.159 7.2615 3.45597 8.12853 4.89472 8.12853C5.8372 8.13021 6.74164 7.75698 7.40867 7.09115C8.07569 6.42531 8.45052 5.52153 8.45051 4.57905C8.45307 3.1403 7.58835 1.84179 6.25985 1.28943C4.93135 0.737074 3.4009 1.03973 2.38264 2.05618C1.36439 3.07263 1.05901 4.60253 1.609 5.93202Z" fill="black"/>
</svg>
