<svg width="24" height="23" viewBox="0 0 24 23" fill="none" xmlns="http://www.w3.org/2000/svg">
<path fill-rule="evenodd" clip-rule="evenodd" d="M23.701 11.4948C23.701 5.17897 18.522 0.126343 12.3325 0.126343C6.01674 0.126343 0.964111 5.17897 0.964111 11.4948C0.964111 17.8106 6.01674 22.8632 12.3325 22.8632V21.4737C8.54306 21.4737 5.25885 19.3263 3.49043 16.1684L6.39569 15.6632L5.51148 9.97897L2.4799 10.4842C2.98516 5.43161 7.2799 1.51582 12.3325 1.51582C17.5115 1.51582 21.6799 5.43161 22.1852 10.4842L19.1536 9.97897L18.1431 15.6632L22.6904 16.4211L23.701 11.4948ZM4.37464 11.6211L4.8799 14.4L3.11148 14.6527L2.60622 12L4.37464 11.6211ZM19.9115 14.5263L21.6799 14.779L22.1852 12L20.4167 11.7474L19.9115 14.5263Z" fill="black"/>
</svg>
