<svg width="9" height="9" viewBox="0 0 9 9" fill="none" xmlns="http://www.w3.org/2000/svg">
<path fill-rule="evenodd" clip-rule="evenodd" d="M4.68569 0.270328L7.83951 3.42415C8.19995 3.78459 8.19995 4.32525 7.83951 4.68569L4.68569 7.83951C4.50547 8.01973 4.28019 8.10984 4.05492 8.10984C3.82965 8.10984 3.60437 8.01973 3.42416 7.83951L0.270328 4.68569C-0.0901093 4.32525 -0.0901093 3.78459 0.270328 3.42415L3.42416 0.270328C3.60437 0.0901094 3.82965 0 4.05492 0C4.28019 0 4.50547 0.0901094 4.68569 0.270328ZM4.32525 7.47895L7.47908 4.32512C7.56919 4.23501 7.61424 4.1449 7.61424 4.05479C7.61424 3.96468 7.56919 3.87458 7.43402 3.78447L4.28019 0.630639C4.19008 0.585585 4.09998 0.54053 4.00987 0.54053C3.91976 0.54053 3.82965 0.54053 3.73954 0.630639L0.585711 3.78447C0.540656 3.87458 0.495602 3.96468 0.495602 4.05479C0.495602 4.1449 0.540656 4.23501 0.630766 4.32512L3.78459 7.47895C3.8747 7.56906 3.96481 7.56906 4.05492 7.56906C4.14503 7.56906 4.23514 7.56906 4.32525 7.47895Z" fill="black"/>
</svg>
