<svg width="14" height="13" viewBox="0 0 14 13" fill="none" xmlns="http://www.w3.org/2000/svg">
<path fill-rule="evenodd" clip-rule="evenodd" d="M7.58575 0.905492L12.5793 5.63623C13.15 6.17689 13.15 6.98787 12.5793 7.52853L7.58575 12.2593C7.30041 12.5296 6.94372 12.6648 6.58704 12.6648C6.23036 12.6648 5.87367 12.5296 5.58833 12.2593L0.594767 7.52853C0.0240749 6.98787 0.0240749 6.17689 0.594767 5.63623L5.58833 0.905492C5.87367 0.635164 6.23036 0.5 6.58704 0.5C6.94372 0.5 7.30041 0.635164 7.58575 0.905492ZM7.01506 11.7184L12.0086 6.98768C12.1513 6.85252 12.2226 6.71736 12.2226 6.58219C12.2226 6.44703 12.1513 6.31186 11.9373 6.1767L6.94372 1.44596C6.80105 1.37838 6.65838 1.31079 6.5157 1.31079C6.37303 1.31079 6.23036 1.31079 6.08768 1.44596L1.09412 6.1767C1.02279 6.31186 0.951451 6.44703 0.951451 6.58219C0.951451 6.71736 1.02279 6.85252 1.16546 6.98768L6.15902 11.7184C6.30169 11.8536 6.44437 11.8536 6.58704 11.8536C6.72971 11.8536 6.87238 11.8536 7.01506 11.7184Z" fill="black"/>
</svg>
