<svg width="24" height="23" viewBox="0 0 24 23" fill="none" xmlns="http://www.w3.org/2000/svg">
<path fill-rule="evenodd" clip-rule="evenodd" d="M23.7007 11.4947C23.7007 5.17894 18.5218 0.126312 12.3323 0.126312C6.0165 0.126312 0.963867 5.17894 0.963867 11.4947C0.963867 17.8105 6.0165 22.8632 12.3323 22.8632V21.4737C8.54282 21.4737 5.2586 19.3263 3.49018 16.1684L6.39545 15.6632L5.51124 9.97894L2.47966 10.4842C2.98492 5.43158 7.27966 1.51579 12.3323 1.51579C17.5112 1.51579 21.6797 5.43158 22.1849 10.4842L19.1533 9.97894L18.1428 15.6632L22.6902 16.421L23.7007 11.4947ZM4.37439 11.621L4.87966 14.4L3.11124 14.6526L2.60597 12L4.37439 11.621ZM19.9112 14.5263L21.6797 14.7789L22.1849 12L20.4165 11.7474L19.9112 14.5263Z" fill="black"/>
</svg>
