<svg width="24" height="24" viewBox="0 0 24 24" fill="none" xmlns="http://www.w3.org/2000/svg">
<path fill-rule="evenodd" clip-rule="evenodd" d="M13.8667 0.8L23.2 10.1333C24.2667 11.2 24.2667 12.8 23.2 13.8667L13.8667 23.2C13.3333 23.7333 12.6667 24 12 24C11.3333 24 10.6667 23.7333 10.1333 23.2L0.8 13.8667C-0.266667 12.8 -0.266667 11.2 0.8 10.1333L10.1333 0.8C10.6667 0.266667 11.3333 0 12 0C12.6667 0 13.3333 0.266667 13.8667 0.8ZM12.8 22.1332L22.1333 12.7998C22.4 12.5332 22.5333 12.2665 22.5333 11.9998C22.5333 11.7332 22.4 11.4665 22 11.1998L12.6667 1.86649C12.4 1.73316 12.1333 1.59983 11.8667 1.59983C11.6 1.59983 11.3333 1.59983 11.0667 1.86649L1.73332 11.1998C1.59999 11.4665 1.46666 11.7332 1.46666 11.9998C1.46666 12.2665 1.59999 12.5332 1.86666 12.7998L11.2 22.1332C11.4667 22.3998 11.7333 22.3998 12 22.3998C12.2667 22.3998 12.5333 22.3998 12.8 22.1332Z" fill="black"/>
</svg>
