<svg width="14" height="13" viewBox="0 0 14 13" fill="none" xmlns="http://www.w3.org/2000/svg">
<path fill-rule="evenodd" clip-rule="evenodd" d="M8.08575 0.905492L13.0793 5.63623C13.65 6.17689 13.65 6.98787 13.0793 7.52853L8.08575 12.2593C7.80041 12.5296 7.44372 12.6648 7.08704 12.6648C6.73036 12.6648 6.37367 12.5296 6.08833 12.2593L1.09477 7.52853C0.524075 6.98787 0.524075 6.17689 1.09477 5.63623L6.08833 0.905492C6.37367 0.635164 6.73036 0.5 7.08704 0.5C7.44372 0.5 7.80041 0.635164 8.08575 0.905492ZM7.51506 11.7184L12.5086 6.98768C12.6513 6.85252 12.7226 6.71736 12.7226 6.58219C12.7226 6.44703 12.6513 6.31186 12.4373 6.1767L7.44372 1.44596C7.30105 1.37838 7.15838 1.31079 7.0157 1.31079C6.87303 1.31079 6.73036 1.31079 6.58768 1.44596L1.59412 6.1767C1.52279 6.31186 1.45145 6.44703 1.45145 6.58219C1.45145 6.71736 1.52279 6.85252 1.66546 6.98768L6.65902 11.7184C6.80169 11.8536 6.94437 11.8536 7.08704 11.8536C7.22971 11.8536 7.37238 11.8536 7.51506 11.7184Z" fill="black"/>
</svg>
