<svg width="9" height="9" viewBox="0 0 9 9" fill="none" xmlns="http://www.w3.org/2000/svg">
<path fill-rule="evenodd" clip-rule="evenodd" d="M5.35243 0.270328L8.50626 3.42415C8.8667 3.78459 8.8667 4.32525 8.50626 4.68569L5.35243 7.83951C5.17222 8.01973 4.94694 8.10984 4.72167 8.10984C4.4964 8.10984 4.27112 8.01973 4.0909 7.83951L0.937076 4.68569C0.576639 4.32525 0.576639 3.78459 0.937076 3.42415L4.0909 0.270328C4.27112 0.0901094 4.4964 0 4.72167 0C4.94694 0 5.17222 0.0901094 5.35243 0.270328ZM4.992 7.47895L8.14582 4.32512C8.23593 4.23501 8.28099 4.1449 8.28099 4.05479C8.28099 3.96468 8.23593 3.87458 8.10077 3.78447L4.94694 0.630639C4.85683 0.585585 4.76672 0.54053 4.67661 0.54053C4.5865 0.54053 4.4964 0.54053 4.40629 0.630639L1.25246 3.78447C1.2074 3.87458 1.16235 3.96468 1.16235 4.05479C1.16235 4.1449 1.2074 4.23501 1.29751 4.32512L4.45134 7.47895C4.54145 7.56906 4.63156 7.56906 4.72167 7.56906C4.81178 7.56906 4.90189 7.56906 4.992 7.47895Z" fill="black"/>
</svg>
