<svg width="14" height="13" viewBox="0 0 14 13" fill="none" xmlns="http://www.w3.org/2000/svg">
<path fill-rule="evenodd" clip-rule="evenodd" d="M7.58575 0.405492L12.5793 5.13623C13.15 5.67689 13.15 6.48787 12.5793 7.02853L7.58575 11.7593C7.30041 12.0296 6.94372 12.1648 6.58704 12.1648C6.23036 12.1648 5.87367 12.0296 5.58833 11.7593L0.594767 7.02853C0.0240749 6.48787 0.0240749 5.67689 0.594767 5.13623L5.58833 0.405492C5.87367 0.135164 6.23036 0 6.58704 0C6.94372 0 7.30041 0.135164 7.58575 0.405492ZM7.01506 11.2184L12.0086 6.48768C12.1513 6.35252 12.2226 6.21736 12.2226 6.08219C12.2226 5.94703 12.1513 5.81186 11.9373 5.6767L6.94372 0.945959C6.80105 0.878377 6.65838 0.810795 6.5157 0.810795C6.37303 0.810795 6.23036 0.810795 6.08768 0.945959L1.09412 5.6767C1.02279 5.81186 0.951451 5.94703 0.951451 6.08219C0.951451 6.21736 1.02279 6.35252 1.16546 6.48768L6.15902 11.2184C6.30169 11.3536 6.44437 11.3536 6.58704 11.3536C6.72971 11.3536 6.87238 11.3536 7.01506 11.2184Z" fill="black"/>
</svg>
