<svg width="24" height="23" viewBox="0 0 24 23" fill="none" xmlns="http://www.w3.org/2000/svg">
<path fill-rule="evenodd" clip-rule="evenodd" d="M23.7012 11.4948C23.7012 5.17897 18.5223 0.126343 12.3328 0.126343C6.01699 0.126343 0.964355 5.17897 0.964355 11.4948C0.964355 17.8106 6.01699 22.8632 12.3328 22.8632V21.4737C8.5433 21.4737 5.25909 19.3263 3.49067 16.1684L6.39593 15.6632L5.51172 9.97897L2.48014 10.4842C2.98541 5.43161 7.28015 1.51582 12.3328 1.51582C17.5117 1.51582 21.6801 5.43161 22.1854 10.4842L19.1538 9.97897L18.1433 15.6632L22.6907 16.4211L23.7012 11.4948ZM4.37488 11.6211L4.88015 14.4L3.11172 14.6527L2.60646 12L4.37488 11.6211ZM19.9117 14.5263L21.6801 14.779L22.1854 12L20.417 11.7474L19.9117 14.5263Z" fill="black"/>
</svg>
